<?xml version="1.0" encoding="UTF-8" standalone="no"?><!DOCTYPE svg PUBLIC "-//W3C//DTD SVG 1.1//EN" "http://www.w3.org/Graphics/SVG/1.1/DTD/svg11.dtd"><svg width="100%" height="100%" viewBox="0 0 7059 1291" version="1.1" xmlns="http://www.w3.org/2000/svg" xmlns:xlink="http://www.w3.org/1999/xlink" xml:space="preserve" xmlns:serif="http://www.serif.com/" style="fill-rule:evenodd;clip-rule:evenodd;stroke-linejoin:round;stroke-miterlimit:2;"><g id="Laag-1" serif:id="Laag 1"><path d="M2981.1,801.509c-67.487,0 -99.44,-26.042 -99.44,-66.302l-0,-2.37c-0,-35.508 20.117,-61.549 93.515,-72.2l31.966,-4.753c46.706,-6.523 75.456,-15.117 101.81,-31.094l0,52.409c0,79.323 -49.726,124.31 -127.851,124.31m17.76,-564.726c-91.172,-0 -185.885,24.856 -303.086,87.617l65.13,161.002c101.797,-56.836 185.86,-81.679 247.435,-81.679c69.844,-0 100.612,26.041 100.612,60.377l0,2.37c0,23.672 -18.932,36.693 -65.117,41.445l-80.495,8.269c-201.263,21.315 -284.153,108.932 -284.153,229.687l-0,8.294c-0,114.831 94.739,204.818 228.502,204.818c88.073,0 164.636,-37.2 211.133,-102.851l15,91.002l182.318,0l-0,-413.19c-0,-195.339 -112.461,-297.161 -317.279,-297.161" style="fill:#010303;fill-rule:nonzero;"/><path d="M1284.55,241.518l-233.229,-233.229l-233.229,233.229l116.015,116.029l-584.843,584.857l233.216,233.229l233.229,-233.229l-116.016,-116.029l584.857,-584.857Z" style="fill:#fa582d;fill-rule:nonzero;"/><path d="M233.2,826.351l-233.2,-233.213l584.873,-584.84l233.2,233.212l-584.873,584.841Z" style="fill:#fa582d;"/><path d="M1048.97,1175.64l-233.252,-233.239l584.834,-584.866l233.252,233.239l-584.834,584.866Z" style="fill:#fa582d;"/><rect x="3434.54" y="0" width="207.174" height="947.135" style="fill:#010303;"/><path d="M2418.74,603.799c-0,106.55 -55.638,183.503 -147.995,183.503c-92.344,0 -147.982,-76.953 -147.982,-183.503l0,-11.835c0,-106.563 55.638,-183.503 147.982,-183.503c92.357,-0 147.995,76.94 147.995,183.503l-0,11.835Zm-87.617,-367.018c-94.18,0 -169.805,41.68 -211.459,106.953l-15.859,-95.104l-182.318,0l0,935.274l207.201,-0l-0,-324.18c39.414,60.794 114.036,99.245 202.435,99.245c165.742,-0 300.729,-146.81 300.729,-349.258l-0,-23.685c-0,-202.448 -134.987,-349.245 -300.729,-349.245" style="fill:#010303;fill-rule:nonzero;"/><path d="M6584.94,603.799c-0,106.55 -55.639,183.503 -147.995,183.503c-92.357,0 -147.995,-76.953 -147.995,-183.503l-0,-11.835c-0,-106.563 55.638,-183.503 147.995,-183.503c92.356,-0 147.995,76.94 147.995,183.503l-0,11.835Zm-147.995,-367.018c-211.914,0 -361.107,146.797 -361.107,349.245l-0,23.685c-0,202.448 149.193,349.258 361.107,349.258c211.901,-0 361.093,-146.81 361.093,-349.258l0,-23.685c0,-202.448 -149.192,-349.245 -361.093,-349.245" style="fill:#010303;fill-rule:nonzero;"/><path d="M6925.88,261.641l24.895,-0c14.18,-0 20.105,4.739 20.105,15.403l-0,1.172c-0,9.466 -5.925,15.404 -20.105,15.404l-24.895,-0l-0,-31.979Zm67.526,17.773l-0,-3.568c-0,-20.117 -15.43,-34.323 -42.631,-34.323l-47.356,0l-0,108.92l22.461,-0l-0,-36.706l25.052,-0l18.75,36.706l24.895,-0l-23.112,-43.099c14.063,-4.271 21.941,-14.779 21.941,-27.93" style="fill:#010303;fill-rule:nonzero;"/><path d="M6946.04,393.057c-55.638,0 -95.898,-40.247 -95.898,-97.07c0,-56.836 40.26,-97.083 95.898,-97.083c55.638,-0 95.899,40.247 95.899,97.083c-0,56.823 -40.261,97.07 -95.899,97.07m0,-209.544c-63.906,0 -112.46,48.529 -112.46,112.474c-0,63.932 48.554,112.461 112.46,112.461c63.92,-0 112.474,-48.529 112.474,-112.461c0,-63.945 -48.554,-112.474 -112.474,-112.474" style="fill:#010303;fill-rule:nonzero;"/><rect x="5258.94" y="0" width="207.214" height="947.135" style="fill:#010303;"/><path d="M5874.6,787.306c-60.378,-0 -82.878,-29.596 -82.878,-93.529l-0,-285.325l243.893,-0l0,-159.831l-243.893,0l-0,-159.831l-207.214,30.795l0,594.31c0,162.2 82.878,245.091 248.62,245.091c73.399,-0 159.831,-22.513 230.886,-62.761l-59.18,-146.81c-41.471,22.5 -99.453,37.891 -130.234,37.891" style="fill:#010303;fill-rule:nonzero;"/><path d="M4805.52,801.509c-67.5,0 -99.453,-26.042 -99.453,-66.302l-0,-2.37c-0,-35.508 20.117,-61.549 93.528,-72.2l31.953,-4.753c46.719,-6.523 75.443,-15.117 101.81,-31.094l0,52.409c0,79.323 -49.713,124.31 -127.838,124.31m17.76,-564.726c-91.172,-0 -185.885,24.856 -303.086,87.617l65.118,161.002c101.809,-56.836 185.872,-81.679 247.447,-81.679c69.844,-0 100.599,26.041 100.599,60.377l0,2.37c0,23.672 -18.932,36.693 -65.104,41.445l-80.508,8.269c-201.25,21.315 -284.14,108.932 -284.14,229.687l-0,8.294c-0,114.831 94.726,204.818 228.502,204.818c88.06,0 164.623,-37.2 211.12,-102.838l15.013,90.989l182.318,0l-0,-413.19c-0,-195.339 -112.461,-297.161 -317.279,-297.161" style="fill:#010303;fill-rule:nonzero;"/><path d="M4243.16,603.799c-0,106.55 -55.638,183.503 -147.995,183.503c-92.344,0 -147.982,-76.953 -147.982,-183.503l-0,-11.835c-0,-106.563 55.638,-183.503 147.982,-183.503c92.357,-0 147.995,76.94 147.995,183.503l-0,11.835Zm-147.995,-367.018c-211.927,0 -361.094,146.797 -361.094,349.245l0,23.685c0,202.448 149.167,349.258 361.094,349.258c211.914,-0 361.094,-146.81 361.094,-349.258l-0,-23.685c-0,-202.448 -149.18,-349.245 -361.094,-349.245" style="fill:#010303;fill-rule:nonzero;"/><path d="M4943.22,1115.08l53.073,-0l73.268,96.666l0.742,0l0,-96.666l48.698,-0l0,170.43l-51.367,-0l-74.987,-99.089l-0.742,-0l-0,99.089l-48.685,-0l-0,-170.43Z" style="fill:#010303;fill-rule:nonzero;"/><path d="M5183.75,1115.08l148.985,-0l1.992,41.393l-100.078,0l-0,23.372l78.607,0l-0,37.735l-78.607,-0l-0,26.536l102.982,0l-1.98,41.394l-151.901,-0l0,-170.43Z" style="fill:#010303;fill-rule:nonzero;"/><path d="M5441.35,1158.9l-59.648,-0l1.914,-43.815l166.771,-0l1.953,43.815l-59.636,-0l0,126.627l-51.354,0l0,-126.627Z" style="fill:#010303;fill-rule:nonzero;"/><path d="M5593.51,1115.08l54.493,-0l27.76,118.32l2.708,0l36.003,-118.32l49.948,-0l35.273,118.32l2.709,0l27.252,-118.32l52.084,-0l-44.805,170.43l-66.927,-0l-31.159,-102.748l-1.445,0l-31.693,102.748l-67.188,-0l-45.013,-170.43Z" style="fill:#010303;fill-rule:nonzero;"/><path d="M6063.12,1200.29c0,-29.466 -17.031,-46.979 -46.523,-46.979c-29.428,-0 -46.459,17.513 -46.459,46.979c0,29.466 17.031,46.992 46.25,46.992c29.427,0 46.732,-17.526 46.732,-46.992m-143.88,0c-0,-55.508 37.708,-90.325 97.357,-90.325c59.648,-0 97.421,34.817 97.421,90.325c0,55.521 -37.773,90.326 -97.421,90.326c-59.649,-0 -97.357,-34.805 -97.357,-90.326" style="fill:#010303;fill-rule:nonzero;"/><path d="M6262.01,1200.78c17.058,0 23.138,-9.492 23.138,-22.409c0,-12.89 -6.08,-22.135 -23.138,-22.135l-41.614,-0l-0,44.544l41.614,0Zm-92.708,-85.703l99.323,0c45.273,0 67.422,21.419 67.422,61.107c-0,27.266 -11.211,45.768 -33.125,54.544l40.404,54.779l-57.917,-0l-31.406,-44.805l-33.607,0l-0,44.805l-51.094,-0l0,-170.43Z" style="fill:#010303;fill-rule:nonzero;"/><path d="M6402.51,1115.08l51.107,-0l-0,62.825l20.937,0l49.909,-62.825l57.448,-0l0.261,0.247l-65.222,81.563l68.867,88.372l-0.247,0.248l-59.648,-0l-51.563,-65.482l-20.742,-0l-0,65.482l-51.107,-0l0,-170.43Z" style="fill:#010303;fill-rule:nonzero;"/><path d="M6624.99,1274.3l-0,-46.745l0.273,0c28.49,14.375 56.25,21.433 80.313,21.433c18.281,-0 27.552,-4.388 27.552,-12.917c-0,-8.516 -6.081,-10.716 -42.604,-16.55c-39.948,-6.328 -66.472,-18.255 -66.472,-52.591c0,-31.875 27.969,-56.484 82.774,-56.484c21.875,-0 44.818,4.635 65.963,13.633l0,46.276l-0.221,0.221c-20.221,-11.667 -47.5,-18.984 -69.388,-18.984c-19.479,-0 -27.292,4.635 -27.292,12.409c0,9.987 11.927,10.976 41.875,16.08c39.961,6.81 66.472,18.008 66.472,54.05c-0,27.995 -20.938,56.002 -81.055,56.002c-29.74,0 -53.333,-6.093 -78.19,-15.833" style="fill:#010303;fill-rule:nonzero;"/></g></svg>